HIERARCHY
ROOT Hips
{
    OFFSET   0.000000   0.000000   0.000000
    CHANNELS 6 Xposition Yposition Zposition Zrotation Xrotation Yrotation
    JOINT Chest
    {
        OFFSET   0.000000   8.007230   0.000000
        CHANNELS 3 Zrotation Xrotation Yrotation
        JOINT Chest2
        {
            OFFSET   0.000000  22.077100   0.000000
            CHANNELS 3 Zrotation Xrotation Yrotation
            JOINT Neck
            {
                OFFSET   0.000000  23.254800  -0.000021
                CHANNELS 3 Zrotation Xrotation Yrotation
                JOINT Head
                {
                    OFFSET   0.000000  14.370000   1.956610
                    CHANNELS 3 Zrotation Xrotation Yrotation
                    End Site
                    {
                        OFFSET   0.000000  19.566000   0.000000
                    }
                }
            }
            JOINT LeftCollar
            {
                OFFSET   3.911900  19.017000  -0.467063
                CHANNELS 3 Zrotation Xrotation Yrotation
                JOINT LeftShoulder
                {
                    OFFSET  10.383700   0.000000   0.000000
                    CHANNELS 3 Zrotation Xrotation Yrotation
                    JOINT LeftElbow
                    {
                        OFFSET  26.662100   0.001529   0.000325
                        CHANNELS 3 Zrotation Xrotation Yrotation
                        JOINT LeftWrist
                        {
                            OFFSET  28.869000  -0.000011  -0.000096
                            CHANNELS 3 Zrotation Xrotation Yrotation
                            JOINT LeftFinger0
                            {
                                OFFSET   2.044650  -2.323460   3.252850
                                CHANNELS 3 Zrotation Xrotation Yrotation
                                JOINT LeftFinger01
                                {
                                    OFFSET   3.088130   0.000000   0.000000
                                    CHANNELS 3 Zrotation Xrotation Yrotation
                                    JOINT LeftFinger02
                                    {
                                        OFFSET   2.639460   0.000000   0.000000
                                        CHANNELS 3 Zrotation Xrotation Yrotation
                                        End Site
                                        {
                                            OFFSET   2.582190   0.000000   0.000000
                                        }
                                    }
                                }
                            }
                            JOINT LeftFinger1
                            {
                                OFFSET   8.364480   0.000000   3.252850
                                CHANNELS 3 Zrotation Xrotation Yrotation
                                JOINT LeftFinger11
                                {
                                    OFFSET   4.646930   0.000000   0.000000
                                    CHANNELS 3 Zrotation Xrotation Yrotation
                                    JOINT LeftFinger12
                                    {
                                        OFFSET   2.323460   0.000000   0.000000
                                        CHANNELS 3 Zrotation Xrotation Yrotation
                                        End Site
                                        {
                                            OFFSET   2.273050   0.000000   0.000000
                                        }
                                    }
                                }
                            }
                            JOINT LeftFinger2
                            {
                                OFFSET   8.364480   0.000016   1.078090
                                CHANNELS 3 Zrotation Xrotation Yrotation
                                JOINT LeftFinger21
                                {
                                    OFFSET   5.111620   0.000000   0.000000
                                    CHANNELS 3 Zrotation Xrotation Yrotation
                                    JOINT LeftFinger22
                                    {
                                        OFFSET   2.788160   0.000017   0.000000
                                        CHANNELS 3 Zrotation Xrotation Yrotation
                                        End Site
                                        {
                                            OFFSET   2.727660   0.000000   0.000000
                                        }
                                    }
                                }
                            }
                            JOINT LeftFinger3
                            {
                                OFFSET   7.899780   0.000015  -1.078090
                                CHANNELS 3 Zrotation Xrotation Yrotation
                                JOINT LeftFinger31
                                {
                                    OFFSET   4.646920   0.000000   0.000000
                                    CHANNELS 3 Zrotation Xrotation Yrotation
                                    JOINT LeftFinger32
                                    {
                                        OFFSET   2.323470   0.000000   0.000000
                                        CHANNELS 3 Zrotation Xrotation Yrotation
                                        End Site
                                        {
                                            OFFSET   2.273050   0.000000   0.000000
                                        }
                                    }
                                }
                            }
                            JOINT LeftFinger4
                            {
                                OFFSET   7.435090   0.000000  -3.252850
                                CHANNELS 3 Zrotation Xrotation Yrotation
                                JOINT LeftFinger41
                                {
                                    OFFSET   3.717550   0.000000   0.000000
                                    CHANNELS 3 Zrotation Xrotation Yrotation
                                    JOINT LeftFinger42
                                    {
                                        OFFSET   1.858760   0.000000   0.000000
                                        CHANNELS 3 Zrotation Xrotation Yrotation
                                        End Site
                                        {
                                            OFFSET   1.818440   0.000000   0.000000
                                        }
                                    }
                                }
                            }
                        }
                    }
                }
            }
            JOINT RightCollar
            {
                OFFSET  -3.911900  19.017000  -0.467062
                CHANNELS 3 Zrotation Xrotation Yrotation
                JOINT RightShoulder
                {
                    OFFSET -10.383700   0.000015   0.000000
                    CHANNELS 3 Zrotation Xrotation Yrotation
                    JOINT RightElbow
                    {
                        OFFSET -26.662100   0.001341   0.000385
                        CHANNELS 3 Zrotation Xrotation Yrotation
                        JOINT RightWrist
                        {
                            OFFSET -28.869000   0.000025  -0.000080
                            CHANNELS 3 Zrotation Xrotation Yrotation
                            JOINT RightFinger0
                            {
                                OFFSET  -2.044650  -2.323490   3.252850
                                CHANNELS 3 Zrotation Xrotation Yrotation
                                JOINT RightFinger01
                                {
                                    OFFSET  -3.088130   0.000000   0.000000
                                    CHANNELS 3 Zrotation Xrotation Yrotation
                                    JOINT RightFinger02
                                    {
                                        OFFSET  -2.639460   0.000000   0.000000
                                        CHANNELS 3 Zrotation Xrotation Yrotation
                                        End Site
                                        {
                                            OFFSET  -2.582190   0.000000   0.000000
                                        }
                                    }
                                }
                            }
                            JOINT RightFinger1
                            {
                                OFFSET  -8.364480   0.000000   3.252850
                                CHANNELS 3 Zrotation Xrotation Yrotation
                                JOINT RightFinger11
                                {
                                    OFFSET  -4.646930   0.000000   0.000000
                                    CHANNELS 3 Zrotation Xrotation Yrotation
                                    JOINT RightFinger12
                                    {
                                        OFFSET  -2.323470   0.000000   0.000000
                                        CHANNELS 3 Zrotation Xrotation Yrotation
                                        End Site
                                        {
                                            OFFSET  -2.273050   0.000000   0.000000
                                        }
                                    }
                                }
                            }
                            JOINT RightFinger2
                            {
                                OFFSET  -8.364480   0.000000   1.078090
                                CHANNELS 3 Zrotation Xrotation Yrotation
                                JOINT RightFinger21
                                {
                                    OFFSET  -5.111610   0.000000   0.000000
                                    CHANNELS 3 Zrotation Xrotation Yrotation
                                    JOINT RightFinger22
                                    {
                                        OFFSET  -2.788160   0.000000   0.000000
                                        CHANNELS 3 Zrotation Xrotation Yrotation
                                        End Site
                                        {
                                            OFFSET  -2.727660   0.000000   0.000000
                                        }
                                    }
                                }
                            }
                            JOINT RightFinger3
                            {
                                OFFSET  -7.899780   0.000000  -1.078090
                                CHANNELS 3 Zrotation Xrotation Yrotation
                                JOINT RightFinger31
                                {
                                    OFFSET  -4.646920   0.000000   0.000000
                                    CHANNELS 3 Zrotation Xrotation Yrotation
                                    JOINT RightFinger32
                                    {
                                        OFFSET  -2.323470   0.000000   0.000000
                                        CHANNELS 3 Zrotation Xrotation Yrotation
                                        End Site
                                        {
                                            OFFSET  -2.273050   0.000000   0.000000
                                        }
                                    }
                                }
                            }
                            JOINT RightFinger4
                            {
                                OFFSET  -7.435090   0.000000  -3.252850
                                CHANNELS 3 Zrotation Xrotation Yrotation
                                JOINT RightFinger41
                                {
                                    OFFSET  -3.717550   0.000000   0.000000
                                    CHANNELS 3 Zrotation Xrotation Yrotation
                                    JOINT RightFinger42
                                    {
                                        OFFSET  -1.858770   0.000000   0.000000
                                        CHANNELS 3 Zrotation Xrotation Yrotation
                                        End Site
                                        {
                                            OFFSET  -1.818440   0.000000   0.000000
                                        }
                                    }
                                }
                            }
                        }
                    }
                }
            }
        }
    }
    JOINT LeftHip
    {
        OFFSET   9.783010   0.000000   0.000000
        CHANNELS 3 Zrotation Xrotation Yrotation
        JOINT LeftKnee
        {
            OFFSET   0.000070 -41.789100   0.000028
            CHANNELS 3 Zrotation Xrotation Yrotation
            JOINT LeftAnkle
            {
                OFFSET   0.000087 -41.133200  -0.000100
                CHANNELS 3 Zrotation Xrotation Yrotation
                JOINT LeftToe
                {
                    OFFSET   0.000000  -6.358960  14.674500
                    CHANNELS 3 Zrotation Xrotation Yrotation
                    End Site
                    {
                        OFFSET   0.000000   0.000000   3.913200
                    }
                }
            }
        }
    }
    JOINT RightHip
    {
        OFFSET  -9.783020   0.000000   0.000000
        CHANNELS 3 Zrotation Xrotation Yrotation
        JOINT RightKnee
        {
            OFFSET   0.000044 -41.789100  -0.000870
            CHANNELS 3 Zrotation Xrotation Yrotation
            JOINT RightAnkle
            {
                OFFSET  -0.000090 -41.133200  -0.000245
                CHANNELS 3 Zrotation Xrotation Yrotation
                JOINT RightToe
                {
                    OFFSET   0.000000  -6.358960  14.674500
                    CHANNELS 3 Zrotation Xrotation Yrotation
                    End Site
                    {
                        OFFSET   0.000000   0.000000   3.913200
                    }
                }
            }
        }
    }
}
MOTION
Frames: 6
Frame Time:   0.016667
  1.510340  90.111500  -0.382104  -1.038860  -3.130530  -5.973220  -0.267002   2.870270  -0.844600  -0.492484   5.744130  -1.678950   1.487110   1.668800  -0.043984   2.449340   3.376030   7.523160  -4.338350  -0.275839   6.902750 -70.730300  21.020300   1.270640  -3.673690  -4.705570 -14.307100  16.512800  -1.864590   4.177240  44.494300  36.836200 -77.852000  -8.374230   0.000899   0.011177   0.812877   0.002774   0.005773 -25.974200   6.766950 -13.596900 -21.913200   0.003856   0.000965 -15.339300   0.004565   0.001842 -27.704300   2.811260  -5.335670 -31.000800  -0.007950   0.003942 -20.646500  -0.003881  -0.004195 -25.667300   1.983390  -4.119460 -25.739500  -0.003924  -0.000985 -17.142500  -0.001065  -0.008072 -29.400800  -0.716394   1.270530 -44.114700  -0.009255   0.001133 -29.380400  -0.004274  -0.003648   9.717560   2.414880   5.289080  66.927800   8.235620  -1.354720   2.758190  -7.557170   9.361730 -12.838200 -14.969000  -1.801580 -41.400900  36.969600  76.827800  26.989900   0.008907  -0.004462   8.494950  -0.006564  -0.002952  28.447700   1.185890   2.187540  23.294100   0.000898   0.002332  16.305800   0.001028   0.001731  27.269400  -1.519020  -2.944040  28.306000  -0.001072   0.000700  18.851800   0.001035   0.000681  27.553700  -3.098260  -5.914140  30.303300   0.000727   0.007729  20.182000  -0.001244   0.003489  38.433400  -4.160120  -5.223430  57.935000   0.005966   0.002770  38.584700  -0.001151   0.000917  -0.559330   4.620830   1.279280   0.380906   0.479645  11.736400  -3.977360  -3.727430   6.039250  -0.000000   0.000000   0.000000   1.182380   3.956000  -5.924200   0.563299   2.353010  -4.998850 -10.667100   0.744989   0.985448  -0.000000   0.000000  -0.000000
  1.510700  90.111500  -0.391713  -1.043580  -3.156060  -5.993400  -0.253487   2.895760  -0.842283  -0.465160   5.794910  -1.674860   1.454040   1.695640  -0.043862   2.395000   3.431240   7.593360  -4.374200  -0.300888   7.007900 -70.778900  21.187400   1.119010  -3.698740  -5.009700 -14.241200  16.511900  -1.728980   4.149350  44.359500  36.634600 -77.594200  -8.494780   0.000883   0.011179   0.752605   0.002777   0.005776 -25.948100   6.717940 -13.517200 -21.888300   0.003853   0.000974 -15.321900   0.004562   0.001842 -27.711600   2.770460  -5.257660 -31.009400  -0.007940   0.004036 -20.652200  -0.003892  -0.004190 -25.651100   1.946210  -4.045730 -25.722800  -0.003928  -0.000974 -17.131400  -0.001073  -0.008072 -29.369300  -0.763614   1.357990 -44.069100  -0.009266   0.001151 -29.350000  -0.004277  -0.003636   9.763290   2.370080   5.365400  66.840500   8.341970  -1.267410   2.729150  -7.569700   9.316770 -12.821300 -14.918300  -1.873610 -41.392800  36.987400  76.824400  27.023900   0.008925  -0.004492   8.511980  -0.006564  -0.002923  28.425900   1.177830   2.175510  23.276200   0.000898   0.002338  16.293300   0.001015   0.001736  27.262200  -1.518920  -2.944430  28.273200  -0.001078   0.000713  18.829900   0.001030   0.000687  27.544100  -3.104970  -5.929740  30.254100   0.000714   0.007715  20.149300  -0.001247   0.003508  38.408400  -4.167860  -5.238900  57.898100   0.005988   0.002778  38.560200  -0.001143   0.000928  -0.553770   4.642530   1.279140   0.380850   0.480813  11.750300  -3.976950  -3.726800   6.044500  -0.000000   0.000000   0.000000   1.187590   3.983100  -5.924140   0.562303   2.343660  -4.996440 -10.667300   0.748852   1.001600  -0.000000   0.000000  -0.000000
  1.511060  90.111500  -0.406952  -1.054090  -3.208540  -6.030360  -0.230799   2.941790  -0.839091  -0.419199   5.886630  -1.669600   1.398410   1.749220  -0.043741   2.303710   3.540920   7.723030  -4.429570  -0.325876   7.181880 -70.909400  21.427800   0.846916  -3.726630  -5.622320 -14.134800  16.524100  -1.593350   4.121490  44.078700  36.230000 -77.093100  -8.733780   0.000848   0.011181   0.633112   0.002780   0.005780 -25.943700   6.626850 -13.340400 -21.863500   0.003842   0.000991 -15.304500   0.004554   0.001842 -27.729000   2.673240  -5.069650 -31.069800  -0.007913   0.004129 -20.692500  -0.003922  -0.004172 -25.640500   1.867760  -3.882750 -25.706000  -0.003938  -0.000950 -17.120300  -0.001094  -0.008070 -29.334800  -0.867625   1.544880 -44.023500  -0.009294   0.001196 -29.319700  -0.004289  -0.003604   9.819400   2.303900   5.472130  66.708500   8.556340  -1.057860   2.667300  -7.616130   9.247040 -12.822100 -14.812100  -2.022360 -41.384600  37.005300  76.820900  27.070900   0.008943  -0.004521   8.535480  -0.006566  -0.002875  28.387300   1.169770   2.163490  23.244300   0.000904   0.002352  16.271000   0.000980   0.001749  27.249600  -1.518210  -2.944810  28.218500  -0.001091   0.000745  18.793500   0.001016   0.000704  27.529800  -3.111680  -5.945340  30.184000   0.000686   0.007681  20.102600  -0.001258   0.003559  38.369600  -4.175600  -5.254380  57.842100   0.006042   0.002796  38.522900  -0.001120   0.000955  -0.544376   4.675710   1.279020   0.381051   0.489116  11.776300  -3.976050  -3.725240   6.054690   0.000000   0.000000  -0.000000   1.198820   4.036690  -5.924280   0.560231   2.328660  -4.991470 -10.667800   0.756319   1.033440   0.000000   0.000000   0.000000
  1.510130  90.111400  -0.417610  -1.067870  -3.269070  -6.066780  -0.211352   2.984900  -0.838484  -0.379707   5.972590  -1.669000   1.350590   1.808720  -0.043745   2.224940   3.661800   7.856280  -4.464960  -0.323944   7.323510 -71.126300  21.530000   0.592656  -3.734320  -6.383970 -14.048900  16.571500  -1.627960   4.245500  43.715800  35.678100 -76.414800  -9.087010   0.000804   0.011158   0.456495   0.002781   0.005783 -26.048800   6.506610 -13.064800 -21.918700   0.003820   0.001006 -15.343100   0.004538   0.001852 -27.778500   2.516160  -4.763260 -31.291900  -0.007871   0.004106 -20.840500  -0.003971  -0.004133 -25.723500   1.745380  -3.628310 -25.778400  -0.003952  -0.000918 -17.168500  -0.001129  -0.008068 -29.392000  -1.024460   1.821890 -44.116000  -0.009339   0.001262 -29.381300  -0.004310  -0.003553   9.831720   2.271530   5.517450  66.630200   8.833350  -0.755545   2.592490  -7.719810   9.192530 -12.871400 -14.647400  -2.205010 -41.335500  36.919100  76.701000  27.084700   0.008938  -0.004499   8.542390  -0.006575  -0.002835  28.339700   1.201720   2.226950  23.205800   0.000919   0.002374  16.244100   0.000926   0.001766  27.238400  -1.488000  -2.888020  28.163600  -0.001108   0.000792  18.757000   0.000993   0.000735  27.525800  -3.080060  -5.886440  30.149700   0.000651   0.007627  20.079700  -0.001279   0.003641  38.345700  -4.131130  -5.204330  57.802500   0.006120   0.002820  38.496500  -0.001081   0.000997  -0.536940   4.686060   1.279070   0.382467   0.535815  11.803400  -3.974700  -3.722200   6.066360   0.000000   0.000000   0.000000   1.213570   4.094590  -5.929010   0.552557   2.318090  -4.983670 -10.668900   0.764839   1.068670   0.000000   0.000000  -0.000000
  1.506960  90.111400  -0.427138  -1.085160  -3.346130  -6.107420  -0.193603   3.034530  -0.837605  -0.343431   6.071600  -1.668440   1.306640   1.882730  -0.043764   2.153690   3.811800   7.998950  -4.491100  -0.311047   7.453340 -71.392600  21.607900   0.309619  -3.698890  -7.173020 -13.985600  16.628200  -1.871200   4.553360  43.332900  35.208400 -75.917500  -9.321800   0.000753   0.011125   0.339100   0.002783   0.005785 -26.203400   6.429960 -12.819600 -22.031500   0.003792   0.001025 -15.422000   0.004519   0.001869 -27.848700   2.359510  -4.455810 -31.631400  -0.007819   0.003942 -21.066500  -0.004035  -0.004085 -25.865000   1.653210  -3.405440 -25.914700  -0.003969  -0.000878 -17.259200  -0.001174  -0.008067 -29.517100  -1.170640   2.066130 -44.308400  -0.009399   0.001340 -29.509400  -0.004338  -0.003488   9.835380   2.243850   5.532300  66.565200   9.099380  -0.376176   2.495610  -7.828390   9.163650 -12.974200 -14.524700  -2.415040 -41.230700  36.757700  76.501100  27.093300   0.008933  -0.004476   8.546640  -0.006590  -0.002792  28.307400   1.252590   2.324680  23.181400   0.000939   0.002401  16.227000   0.000856   0.001787  27.233900  -1.444630  -2.804100  28.130600  -0.001129   0.000848  18.735000   0.000962   0.000774  27.529600  -3.032970  -5.796080  30.136300   0.000606   0.007565  20.070800  -0.001305   0.003744  38.339200  -4.067680  -5.124570  57.782000   0.006218   0.002850  38.482800  -0.001031   0.001050  -0.528649   4.712620   1.279300   0.381759   0.583458  11.833300  -3.973470  -3.720040   6.078780   0.000000   0.000000   0.000000   1.231400   4.167850  -5.936610   0.540398   2.307760  -4.978410 -10.670600   0.773822   1.111040   0.000000   0.000000  -0.000000
  1.501420  90.111400  -0.434594  -1.105060  -3.442470  -6.150630  -0.180828   3.091470  -0.833331  -0.317181   6.185270  -1.660920   1.273120   1.975430  -0.044141   2.102450   3.999620   8.136950  -4.502950  -0.279163   7.554650 -71.687700  21.690900   0.005906  -3.563170  -7.738870 -13.969900  16.577100  -2.659620   5.052220  43.129900  35.072600 -75.833300  -9.317780   0.000701   0.011110   0.341109   0.002786   0.005778 -26.389900   6.444830 -12.742000 -22.182600   0.003757   0.001053 -15.527800   0.004501   0.001888 -27.920200   2.264840  -4.262740 -32.033700  -0.007758   0.002816 -21.334400  -0.004110  -0.004032 -26.036400   1.640360  -3.338110 -26.087100  -0.003987  -0.000827 -17.374000  -0.001227  -0.008067 -29.720800  -1.226870   2.143910 -44.615300  -0.009472   0.001422 -29.713800  -0.004372  -0.003416   9.836370   2.209030   5.519260  66.535600   9.264480   0.052877   2.378200  -7.896750   9.207790 -13.154200 -14.507900  -2.629620 -41.056100  36.544500  76.298900  27.113800   0.008937  -0.004499   8.556900  -0.006607  -0.002733  28.352200   1.286910   2.383360  23.219400   0.000959   0.002431  16.253600   0.000777   0.001809  27.250200  -1.425680  -2.765310  28.197100  -0.001153   0.000904  18.779300   0.000926   0.000821  27.555900  -3.009390  -5.744330  30.260400   0.000545   0.007506  20.153400  -0.001333   0.003855  38.443400  -4.042800  -5.071860  57.932300   0.006333   0.002890  38.582900  -0.000973   0.001110  -0.518952   4.792210   1.281300   0.379367   0.592858  11.863200  -3.972880  -3.721000   6.089950  -0.000000   0.000000   0.000000   1.250660   4.260070  -5.943830   0.528372   2.297860  -4.979100 -10.672200   0.781333   1.160580  -0.000000   0.000000   0.000000
